PathFileType	4	(X/Y/Z)	G:\GRF\jawan data\CompiledGRF\03. Mohit Kumar\0231~ac~Walking 03_markers.trc
DataRate	CameraRate	NumFrames	NumMarkers	Units	OrigDataRate	OrigDataStartFrame	OrigNumFrames
100.000000	100.000000	4	18	mm	100.000000	631	1010
Frame#	Time	c7			r should			l should			sacrum			r asis			r bar 1			r knee 1			r bar 2			r mall			r heel			r met			l asis			l bar 1			l knee 1			l bar 2			l mall			l heel			l met			
		X1	Y1	Z1	X2	Y2	Z2	X3	Y3	Z3	X4	Y4	Z4	X5	Y5	Z5	X6	Y6	Z6	X7	Y7	Z7	X8	Y8	Z8	X9	Y9	Z9	X10	Y10	Z10	X11	Y11	Z11	X12	Y12	Z12	X13	Y13	Z13	X14	Y14	Z14	X15	Y15	Z15	X16	Y16	Z16	X17	Y17	Z17	X18	Y18	Z18	

632	6.31	948.4247436523438	1492.806274414063	230.7622222900391	1057.756958007813	1438.809204101563	385.2107543945313	1002.949829101563	1441.940307617188	52.02928924560547	921.3984985351563	1026.080322265625	213.4477996826172	1101.6201171875	995.5513916015625	345.1658630371094	962.0814208984375	593.9288330078125	398.8002624511719	955.9680786132813	506.7760925292969	343.8096618652344	830.1079711914063	203.5827026367188	358.8059997558594	806.0945434570313	78.86000061035156	293.4068908691406	743.59130859375	48.8614387512207	247.9966430664063	950.2084350585938	35.59830856323242	286.4024047851563	1104.15966796875	1007.608642578125	95.33444213867188	1186.629150390625	603.1483764648438	13.26482582092285	1239.281982421875	532.0543212890625	67.28554534912109	1277.2939453125	259.1610107421875	10.88605880737305	1335.080200195313	90.16902923583984	72.8626708984375	1290.534912109375	33.08636093139648	126.7975540161133	1477.484497070313	96.17342376708984	95.65159606933594	
633	6.32	958.584716796875	1491.5673828125	229.1605834960938	1066.443603515625	1437.77685546875	384.05029296875	1012.541076660156	1440.402709960938	50.71817779541016	931.0075073242188	1025.245239257813	211.7856750488281	1110.941772460938	994.5255737304688	344.5766296386719	967.9249267578125	593.7740478515625	398.2584838867188	962.2335205078125	506.7230529785156	343.5336303710938	832.2471313476563	204.8516540527344	358.7567138671875	806.824462890625	80.18976593017578	293.5487365722656	743.9647216796875	50.70977020263672	248.1315155029297	950.3201904296875	35.57918548583984	286.5664978027344	1114.449462890625	1006.344299316406	94.87229919433594	1194.211059570313	601.3367919921875	13.06710529327393	1246.798583984375	530.4771118164063	67.09034729003906	1290.9873046875	258.4900512695313	10.45276355743408	1351.423706054688	90.62481689453125	72.34434509277344	1307.394775390625	32.37733840942383	125.8249740600586	1493.781494140625	99.34073638916016	96.54634857177734	
634	6.33	967.7260131835938	1490.489135742188	227.6532287597656	1075.45849609375	1436.803466796875	382.831298828125	1021.944885253906	1438.9189453125	49.33981704711914	940.6116943359375	1024.47021484375	210.1288452148438	1121.710083007813	994.0709838867188	343.3650817871094	973.9825439453125	593.6534423828125	397.8034973144531	967.61865234375	506.3403930664063	343.0767517089844	834.489013671875	206.2622222900391	358.7066955566406	807.4805297851563	81.66194152832031	293.7946166992188	744.3521728515625	52.86510467529297	248.2808837890625	950.5565185546875	35.59689712524414	286.7720031738281	1124.942260742188	1005.199645996094	94.37137603759766	1202.355834960938	599.7186279296875	12.87141799926758	1254.440551757813	528.925537109375	66.92024993896484	1304.047241210938	257.8992919921875	9.895510673522949	1366.368530273438	90.99485015869141	71.92163848876953	1323.903442382813	31.15534973144531	124.5430374145508	1508.415649414063	101.6203842163086	97.76024627685547	
635	6.34	976.7059326171875	1489.408447265625	226.0415802001953	1084.825073242188	1435.921630859375	381.5594177246094	1031.654296875	1437.551025390625	47.95293045043945	950.2573852539063	1023.794860839844	208.5720062255859	1133.365966796875	993.9545288085938	341.8526000976563	980.1417846679688	593.555908203125	397.34619140625	973.9364624023438	506.2592163085938	342.72314453125	836.7369995117188	207.8479156494141	358.6280212402344	808.4984130859375	83.40933227539063	293.9733581542969	744.546630859375	55.37495040893555	248.4122772216797	950.3369750976563	35.55012512207031	286.6938781738281	1135.627685546875	1004.230285644531	93.85569763183594	1211.155517578125	598.2586059570313	12.50478458404541	1262.68359375	527.5490112304688	66.73960113525391	1316.588256835938	257.4539794921875	9.237852096557617	1379.903076171875	91.06319427490234	71.45048522949219	1335.423095703125	30.93672752380371	122.9330902099609	1521.023193359375	102.7543487548828	99.29793548583984	
